Coordinates
version=1
nRows=28
nColumns=23
inDegrees=yes

Units are S.I. units (second, meters, Newtons, ...)
Angles are in degrees.

endheader
time	pelvis_tilt	pelvis_list	pelvis_rotation	pelvis_tx	pelvis_ty	pelvis_tz	hip_flexion_r	hip_adduction_r	hip_rotation_r	knee_angle_r	knee_angle_r_beta	ankle_angle_r	subtalar_angle_r	mtp_angle_r	hip_flexion_l	hip_adduction_l	hip_rotation_l	knee_angle_l	knee_angle_l_beta	ankle_angle_l	subtalar_angle_l	mtp_angle_l
    123.00444400	    -21.96525823	     -0.25769948	      7.78092551	      0.03444628	      1.28790945	      0.22427374	     49.51666805	     -9.48426988	     -6.68334415	     46.34351018	      0.80884684	     -5.96379520	      0.00000000	      0.00000000	     95.33819110	      1.33819801	      2.10429982	    103.44145454	      1.80539396	      6.28173190	      0.00000000	      0.00000000
    123.01333300	    -21.82624214	     -0.37348236	      7.60146500	      0.03420919	      1.28805099	      0.22413988	     50.27264867	     -9.37475465	     -6.19666026	     49.34813072	      0.86128736	     -5.29151853	      0.00000000	      0.00000000	     94.50189606	      1.35071652	      2.16969944	    101.25543832	      1.76724078	      6.70848369	      0.00000000	      0.00000000
    123.02222200	    -21.66557242	     -0.47665030	      7.40655728	      0.03402382	      1.28821808	      0.22404898	     51.08064697	     -9.25913258	     -5.70366325	     52.42924314	      0.91506292	     -4.65321545	      0.00000000	      0.00000000	     93.44605852	      1.30036397	      2.18252696	     98.87792174	      1.72574529	      7.13688514	      0.00000000	      0.00000000
    123.03111100	    -21.49318560	     -0.56980413	      7.19650820	      0.03390617	      1.28840714	      0.22400889	     51.94713104	     -9.13614106	     -5.21039856	     55.56827651	      0.96984938	     -4.06459503	      0.00000000	      0.00000000	     92.19063981	      1.18486623	      2.14097302	     96.31713629	      1.68105115	      7.54016091	      0.00000000	      0.00000000
    123.04000000	    -21.33057040	     -0.66260383	      6.95506865	      0.03386319	      1.28858399	      0.22404852	     52.89735946	     -8.98110069	     -4.70664309	     58.75210885	      1.02541774	     -3.49069913	      0.00000000	      0.00000000	     90.77336401	      0.98468411	      2.05407682	     93.58897290	      1.63343572	      7.89801618	      0.00000000	      0.00000000
    123.04888900	    -21.14376203	     -0.75873929	      6.70379174	      0.03389804	      1.28883993	      0.22408986	     53.88361947	     -8.81449611	     -4.22887149	     61.93757737	      1.08101466	     -3.07435584	      0.00000000	      0.00000000	     89.16874486	      0.72756735	      1.92685865	     90.69445316	      1.58291682	      8.16991158	      0.00000000	      0.00000000
    123.05777800	    -20.95109491	     -0.83852984	      6.43662076	      0.03399734	      1.28914810	      0.22419042	     54.93306097	     -8.64088497	     -3.74647258	     65.11757457	      1.13651608	     -2.77043785	      0.00000000	      0.00000000	     87.39961750	      0.41016556	      1.74018807	     87.64326404	      1.52966352	      8.33990810	      0.00000000	      0.00000000
    123.06666700	    -20.76379638	     -0.98680497	      6.14551708	      0.03418491	      1.28941001	      0.22422293	     56.05065400	     -8.41001071	     -3.32659722	     68.28134370	      1.19173427	     -2.60908286	      0.00000000	      0.00000000	     85.53066788	      0.02347165	      1.56762157	     84.49425330	      1.47470292	      8.43346571	      0.00000000	      0.00000000
    123.07555600	    -20.57404608	     -1.01218597	      5.83348202	      0.03449995	      1.28987358	      0.22436868	     57.22767132	     -8.23794631	     -2.82257042	     71.38895759	      1.24597236	     -2.47627542	      0.00000000	      0.00000000	     83.46570574	     -0.39261772	      1.24093761	     81.15994068	      1.41650819	      8.40486329	      0.00000000	      0.00000000
    123.08444400	    -20.41274682	     -1.05408770	      5.48540758	      0.03496606	      1.29044401	      0.22452672	     58.47275045	     -8.02129662	     -2.31959046	     74.40574042	      1.29862515	     -2.40141046	      0.00000000	      0.00000000	     81.29804690	     -0.87230190	      0.85815795	     77.69806838	      1.35608712	      8.33444959	      0.00000000	      0.00000000
    123.09333300	    -20.21257241	     -1.08531393	      5.14417791	      0.03545844	      1.29095176	      0.22461378	     59.76563754	     -7.83340623	     -1.84361796	     77.42644931	      1.35134647	     -2.50719970	      0.00000000	      0.00000000	     79.01694281	     -1.34946015	      0.43058880	     74.19198230	      1.29489437	      8.04686997	      0.00000000	      0.00000000
    123.10222200	    -20.11924621	     -1.36115393	      4.78845777	      0.03621476	      1.29167762	      0.22454443	     61.09982691	     -7.48924995	     -1.59796481	     80.14913262	      1.39886626	     -2.71944194	      0.00000000	      0.00000000	     76.75700704	     -1.91703601	      0.16392128	     70.54675489	      1.23127315	      7.71967552	      0.00000000	      0.00000000
    123.11111100	    -19.95880445	     -1.35386882	      4.40688129	      0.03701571	      1.29236013	      0.22462704	     62.51558599	     -7.31693243	     -1.13700011	     82.99110213	      1.44846798	     -2.90707305	      0.00000000	      0.00000000	     74.29154866	     -2.44151909	     -0.48423297	     66.84999033	      1.16675244	      7.18863566	      0.00000000	      0.00000000
    123.12000000	    -19.68055675	     -1.15556446	      3.98380726	      0.03760757	      1.29287199	      0.22475610	     63.96645826	     -7.19524743	     -0.43950905	     85.90175493	      1.49926846	     -3.07211072	      0.00000000	      0.00000000	     71.63745259	     -2.89394947	     -1.33654338	     63.17201868	      1.10255972	      6.53468363	      0.00000000	      0.00000000
    123.12888900	    -19.50411024	     -1.16229193	      3.53777907	      0.03849566	      1.29354660	      0.22478604	     65.46095883	     -6.95306201	      0.02292716	     88.55414167	      1.54556134	     -3.24299975	      0.00000000	      0.00000000	     69.02368188	     -3.43293098	     -2.13089404	     59.42295744	      1.03712626	      5.89248364	      0.00000000	      0.00000000
    123.13777800	    -19.37415454	     -1.20646388	      3.08448160	      0.03944934	      1.29415186	      0.22475176	     67.03089208	     -6.69584323	      0.42650523	     91.08889442	      1.58980112	     -3.41762630	      0.00000000	      0.00000000	     66.41650367	     -3.96558468	     -2.99166853	     55.66119623	      0.97147114	      5.07267024	      0.00000000	      0.00000000
    123.14666700	    -19.24908529	     -1.23517145	      2.59270568	      0.04043750	      1.29471620	      0.22469799	     68.64605001	     -6.41765510	      0.83451888	     93.51760654	      1.63219014	     -3.52837901	      0.00000000	      0.00000000	     63.77079603	     -4.49481786	     -3.99198042	     51.92033959	      0.90618087	      4.24147161	      0.00000000	      0.00000000
    123.15555600	    -19.11301002	     -1.25458733	      2.07889893	      0.04145666	      1.29521114	      0.22462461	     70.28071177	     -6.13052044	      1.22700476	     95.83597372	      1.67265328	     -3.57908570	      0.00000000	      0.00000000	     61.09719685	     -4.99990598	     -5.12697623	     48.24245616	      0.84198970	      3.40141464	      0.00000000	      0.00000000
    123.16444400	    -19.02702144	     -1.32658568	      1.55600694	      0.04246981	      1.29555083	      0.22450256	     71.97898554	     -5.81421225	      1.54231012	     98.01726531	      1.71072400	     -3.57699513	      0.00000000	      0.00000000	     58.50867881	     -5.50005245	     -6.32411258	     44.66463613	      0.77954496	      2.43228826	      0.00000000	      0.00000000
    123.17333300	    -18.94855849	     -1.38815148	      1.03224828	      0.04344876	      1.29575366	      0.22433944	     73.70547992	     -5.50454465	      1.84257127	    100.07347569	      1.74661164	     -3.51249755	      0.00000000	      0.00000000	     55.97169684	     -5.94550009	     -7.60733024	     41.22535636	      0.71951820	      1.41551168	      0.00000000	      0.00000000
    123.18222200	    -18.91264054	     -1.49443066	      0.50706623	      0.04439239	      1.29578321	      0.22416324	     75.47256869	     -5.16924150	      2.06832483	    101.97520761	      1.77980313	     -3.37113492	      0.00000000	      0.00000000	     53.57436833	     -6.38402215	     -8.92598837	     37.99182696	      0.66308247	      0.28523978	      0.00000000	      0.00000000
    123.19111100	    -18.89919911	     -1.61179422	      0.01203966	      0.04525304	      1.29568307	      0.22392560	     77.25340006	     -4.85263405	      2.25126481	    103.72453293	      1.81033461	     -3.16729772	      0.00000000	      0.00000000	     51.32072454	     -6.75999866	    -10.23925864	     35.00509775	      0.61095421	     -0.89214802	      0.00000000	      0.00000000
    123.20000000	    -18.90509016	     -1.72756400	     -0.43646403	      0.04601773	      1.29544283	      0.22365580	     79.04000426	     -4.57201551	      2.39685837	    105.31646414	      1.83811906	     -2.90667026	      0.00000000	      0.00000000	     49.24501326	     -7.06810827	    -11.49619745	     32.33350201	      0.56432607	     -2.09608158	      0.00000000	      0.00000000
    123.20888900	    -18.98343219	     -1.89490866	     -0.85835816	      0.04668266	      1.29506343	      0.22342199	     80.85467396	     -4.27073110	      2.46316327	    106.71092643	      1.86245701	     -2.56554252	      0.00000000	      0.00000000	     47.44234510	     -7.38540513	    -12.63630952	     30.04698090	      0.52441875	     -3.31805826	      0.00000000	      0.00000000
    123.21777800	    -19.09379943	     -2.06500520	     -1.21788542	      0.04722689	      1.29463153	      0.22317318	     82.65302302	     -4.00563018	      2.49329092	    107.91159740	      1.88341268	     -2.18242960	      0.00000000	      0.00000000	     45.87897148	     -7.65114390	    -13.60309352	     28.17284935	      0.49170898	     -4.43713799	      0.00000000	      0.00000000
    123.22666700	    -19.17537724	     -2.20747407	     -1.51439057	      0.04758697	      1.29425561	      0.22300132	     84.36878141	     -3.76800199	      2.52494094	    108.91063642	      1.90084920	     -1.79676626	      0.00000000	      0.00000000	     44.50265887	     -7.86079440	    -14.37081700	     26.73457699	      0.46660639	     -5.38769139	      0.00000000	      0.00000000
    123.23555600	    -19.26334373	     -2.30596647	     -1.77384588	      0.04789312	      1.29398038	      0.22291889	     86.01219282	     -3.52820571	      2.58032412	    109.68162219	      1.91430544	     -1.39873808	      0.00000000	      0.00000000	     43.32656188	     -8.02330050	    -14.94694756	     25.73807662	      0.44921418	     -6.18842398	      0.00000000	      0.00000000
    123.24444400	    -19.10519012	     -2.70165509	     -1.81465175	      0.04757955	      1.29392884	      0.22261512	     87.27405483	     -3.40368439	      2.29383279	    110.18370803	      1.92306849	     -1.40756538	      0.00000000	      0.00000000	     42.32931265	     -8.33490943	    -14.83935836	     25.57033983	      0.44628662	     -6.24142169	      0.00000000	      0.00000000
